<svg width="66" height="66" viewBox="0 0 66 66" fill="none" xmlns="http://www.w3.org/2000/svg">
<rect x="0.5" y="0.194092" width="65" height="65" rx="8" fill="#55ACEE"/>
<path fill-rule="evenodd" clip-rule="evenodd" d="M29.7863 28.9053H34.4287V31.2178C35.0975 29.8878 36.8125 28.6928 39.3888 28.6928C44.3275 28.6928 45.5 31.3403 45.5 36.1978V45.1941H40.5V37.3041C40.5 34.5378 39.8313 32.9778 38.1287 32.9778C35.7675 32.9778 34.7863 34.6591 34.7863 37.3028V45.1941H29.7863V28.9053ZM21.2125 44.9816H26.2125V28.6928H21.2125V44.9816ZM26.9288 23.3816C26.9289 23.8007 26.8458 24.2156 26.6842 24.6023C26.5226 24.989 26.2858 25.3397 25.9875 25.6341C25.383 26.2349 24.5648 26.5712 23.7125 26.5691C22.8617 26.5685 22.0454 26.2331 21.44 25.6353C21.1428 25.34 20.9067 24.9889 20.7454 24.6021C20.5841 24.2154 20.5007 23.8006 20.5 23.3816C20.5 22.5353 20.8375 21.7253 21.4413 21.1278C22.0461 20.5293 22.8628 20.1937 23.7138 20.1941C24.5663 20.1941 25.3837 20.5303 25.9875 21.1278C26.59 21.7253 26.9288 22.5353 26.9288 23.3816Z" fill="white"/>
</svg>
